<?xml version="1.0" standalone="no"?><!DOCTYPE svg PUBLIC "-//W3C//DTD SVG 1.1//EN" "http://www.w3.org/Graphics/SVG/1.1/DTD/svg11.dtd"><svg t="1582348423253" class="icon" viewBox="0 0 1024 1024" version="1.1" xmlns="http://www.w3.org/2000/svg" p-id="2292" xmlns:xlink="http://www.w3.org/1999/xlink" width="200" height="200"><defs><style type="text/css"></style></defs><path d="M762 466.7c-90.7-70.2-221.1-53.5-291.3 37.2-70.2 90.7-53.5 221.1 37.2 291.3S729 848.7 799.2 758c70.2-90.7 53.5-221.1-37.2-291.3z m-233.5 302c-76.1-58.8-90-168.1-31.2-244.2s168.1-90 244.2-31.2 90 168.1 31.2 244.2-168.1 90-244.2 31.2z" fill="#F5D000" p-id="2293"></path><path d="M790.5 375.1l-46.9 16.7-1.9 0.7-59.9-48.3h0.3l57.2-8.8zM851.4 422.2l-4.3 49.6-0.2 2 61.7 45.8v-0.3l-5.9-57.5z" fill="#BBF9F7" p-id="2294"></path><path d="M793.4 434.2l-51.7-41.7 1.9-0.7 46.9-16.7 60.9 47.1-4.3 49.6-0.2 2z" fill="#D9FFFE" p-id="2295"></path><path d="M711 540.9l-29.2-196.7 59.9 48.3 51.7 41.7 53.5 39.6 61.7 45.8 0.1 0.1z" fill="#18A4A5" p-id="2296"></path><path d="M741.7 392.5L711 540.9l135.9-67.1" fill="#40D3CF" p-id="2297"></path><path d="M366 315.1c-99.1 55.8-134.2 181.3-78.4 280.4 55.8 99.1 181.3 134.2 280.4 78.4 99.1-55.8 134.2-181.3 78.4-280.4C590.6 294.4 465 259.3 366 315.1z m185.6 329.8c-83.1 46.7-188.3 17.3-235-65.8s-17.3-188.3 65.8-235 188.3-17.3 235 65.8c46.7 83 17.2 188.2-65.8 235z" fill="#F5D000" p-id="2298"></path><path d="M293.3 253.7l-2.9 49.2-0.1 2.1-67.2 36 0.1-0.3 14.1-55.5zM359.8 216.2l43.6 23.1 1.8 1 65.6-38.7-0.2-0.1-54.8-16.8z" fill="#FC6565" p-id="2299"></path><path d="M348.4 273.8L290.3 305l0.1-2.1 2.9-49.2 66.5-37.5 43.6 23.1 1.8 1z" fill="#FFAEAE" p-id="2300"></path><path d="M414 390.3l-190.9-49.2v-0.1l67.2-36 58.1-31.2 56.8-33.5 65.6-38.7h0.1z" fill="#C1272D" p-id="2301"></path><path d="M290.3 305L414 390.3l-8.8-150" fill="#ED1C24" p-id="2302"></path><path d="M240.3 496.8c-3.7 0-7.4-0.6-11-1.8-10.1-3.4-17.3-11.3-19.2-21-1.2-6.4-1.1-19 13.6-31.7 4.9-4.2 12.3-3.7 16.5 1.2 4.2 4.9 3.7 12.3-1.2 16.5-4.9 4.3-6.3 7.8-5.9 9.6 0.3 1.4 1.7 2.7 3.8 3.3 1.6 0.5 7.2 1.9 13.7-3.8 4.5-3.9 7.5-11.9 7.8-20.3 0.3-7.7-1.8-14.6-5.6-18.4l-1.3-1.3c-6.2-6.2-13.9-13.9-16.5-24.7-3.1-12.8 1.9-26.1 14.9-39.5 17-17.6 44.8-8.1 58.5 0.2 5.5 3.4 7.3 10.5 3.9 16.1-3.3 5.5-10.5 7.3-16 3.9-4.5-2.7-22.6-11.2-29.6-4-14.8 15.3-9.7 20.4 1.4 31.5l1.3 1.4c8.3 8.4 12.8 21.4 12.3 35.6-0.5 15-6.4 28.9-15.7 37.1-7.6 6.6-16.7 10.1-25.7 10.1zM559.3 323.3c-10.1 0-21.2-3.6-30.8-10.2-11.8-8.1-19.6-19.4-21.4-31l-0.3-1.9c-2.4-15.5-3.5-22.6-24.5-19.7-10 1.4-13.8 21-14.3 26.2-0.6 6.4-6.3 11.1-12.7 10.6-6.4-0.6-11.2-6.2-10.6-12.7 1.4-16 10.3-44 34.5-47.3 18.5-2.5 32.2 1.3 40.7 11.4 7.2 8.5 8.8 19.3 10.2 28l0.3 1.8c0.8 5.3 5.1 11 11.5 15.4 7 4.8 15.2 7 21 5.8 8.4-1.8 10.6-7.2 11.1-8.8 0.7-2.1 0.5-4-0.5-5-1.2-1.3-4.9-2.3-11.2-0.9-6.3 1.4-12.6-2.5-14-8.8-1.4-6.3 2.5-12.6 8.8-14 19-4.3 29.2 3.1 33.6 7.9 6.7 7.3 8.8 17.7 5.6 27.9-3.9 12.3-14.5 21.5-28.5 24.5-2.8 0.5-5.6 0.8-8.5 0.8z" fill="#F5D000" p-id="2303"></path></svg>